<?xml version="1.0" encoding="utf-8"?><svg viewBox="0 0 448 512" xmlns="http://www.w3.org/2000/svg" xmlns:xlink="http://www.w3.org/1999/xlink"><style>:root>svg{display:none}:root>svg:target{display:block}</style><svg aria-hidden="true" data-prefix="fas" data-icon="arrow-right" class="aasvg-inline--fa aafa-arrow-right aafa-w-14" viewBox="0 0 448 512" id="arrow-blog-reply" xmlns="http://www.w3.org/2000/svg"><path fill="currentColor" d="M190.5 66.9l22.2-22.2c9.4-9.4 24.6-9.4 33.9 0L441 239c9.4 9.4 9.4 24.6 0 33.9L246.6 467.3c-9.4 9.4-24.6 9.4-33.9 0l-22.2-22.2c-9.5-9.5-9.3-25 .4-34.3L311.4 296H24c-13.3 0-24-10.7-24-24v-32c0-13.3 10.7-24 24-24h287.4L190.9 101.2c-9.8-9.3-10-24.8-.4-34.3z"/></svg><svg viewBox="0 0 15 13" id="arrow-reply" xmlns="http://www.w3.org/2000/svg"><defs><style>.abcls-1{fill:#8d8d8d;fill-rule:evenodd}</style></defs><path class="abcls-1" d="M5.835 3.48V.01L0 6.08l5.834 6.07V8.59c4.167 0 7.084 1.39 9.167 4.42-.832-4.33-3.333-8.66-9.166-9.53z"/></svg><svg viewBox="0 0 6.1 10.97" id="arrow-right" xmlns="http://www.w3.org/2000/svg"><defs><style>.accls-1{fill:#262626;fill-rule:evenodd}</style></defs><path class="accls-1" d="M.55 10.97a.53.53 0 01-.41-.19.6.6 0 01-.15-.4.631.631 0 01.17-.43l4.55-4.47L.16 1A.607.607 0 01-.01.58.629.629 0 01.14.17a.559.559 0 01.8-.02l4.98 4.9.01.01a.657.657 0 01.12.17.7.7 0 01.05.25.742.742 0 01-.05.25.61.61 0 01-.12.16c0 .01-.01.01-.01.02l-4.98 4.9a.589.589 0 01-.39.16z"/></svg><svg viewBox="0 0 22 9" id="arrow-slider-left" xmlns="http://www.w3.org/2000/svg"><defs><style>.adcls-1{fill:#a3bbc8;fill-rule:evenodd}</style></defs><path class="adcls-1" d="M21.7 3.53H4.76l.1-2.86a.3.3 0 00.08-.2.323.323 0 00-.08-.21L4.68.09a.267.267 0 00-.4 0L.08 4.3a.3.3 0 00-.08.2.323.323 0 00.08.21l4.2 4.21a.29.29 0 00.4 0l.18-.17a.323.323 0 00.08-.21.3.3 0 00-.08-.2l-.12-2.86h16.97a.3.3 0 00.29-.3V3.81a.291.291 0 00-.3-.28z"/></svg><svg viewBox="0 0 22 9" id="arrow-slider-right" xmlns="http://www.w3.org/2000/svg"><defs><style>.aecls-1{fill:#a3bbc8;fill-rule:evenodd}</style></defs><path class="aecls-1" d="M.3 5.47h16.94l-.1 2.86a.3.3 0 00-.08.2.323.323 0 00.08.21l.18.17a.267.267 0 00.4 0l4.2-4.21a.3.3 0 00.08-.2.323.323 0 00-.08-.21L17.72.08a.29.29 0 00-.4 0l-.18.17a.323.323 0 00-.08.21.318.318 0 00.08.2l.12 2.86H.29a.3.3 0 00-.29.3v1.37a.291.291 0 00.3.28z"/></svg><svg viewBox="0 0 22 9" id="arrows-btn" xmlns="http://www.w3.org/2000/svg"><defs><style>.afcls-1{fill:#fff;fill-rule:evenodd}</style></defs><path class="afcls-1" d="M.3 5.472h16.948l-.1 2.857a.292.292 0 000 .41l.172.172a.28.28 0 00.2.086.285.285 0 00.2-.084l4.193-4.211A.292.292 0 0022 4.5a.283.283 0 00-.084-.2L17.723.087a.289.289 0 00-.407 0l-.172.173a.287.287 0 00-.084.2.278.278 0 00.084.2l.113 2.865H.292A.3.3 0 000 3.82v1.37a.292.292 0 00.3.282z"/></svg><svg aria-hidden="true" data-prefix="far" data-icon="user" viewBox="0 0 448 512" id="autor-icon" xmlns="http://www.w3.org/2000/svg"><path d="M313.6 304c-28.7 0-42.5 16-89.6 16-47.1 0-60.8-16-89.6-16C60.2 304 0 364.2 0 438.4V464c0 26.5 21.5 48 48 48h352c26.5 0 48-21.5 48-48v-25.6c0-74.2-60.2-134.4-134.4-134.4zM400 464H48v-25.6c0-47.6 38.8-86.4 86.4-86.4 14.6 0 38.3 16 89.6 16 51.7 0 74.9-16 89.6-16 47.6 0 86.4 38.8 86.4 86.4V464zM224 288c79.5 0 144-64.5 144-144S303.5 0 224 0 80 64.5 80 144s64.5 144 144 144zm0-240c52.9 0 96 43.1 96 96s-43.1 96-96 96-96-43.1-96-96 43.1-96 96-96z"/></svg><svg viewBox="0 0 15 15" id="btn-grid" xmlns="http://www.w3.org/2000/svg"><defs><style>.ahcls-1{fill:#fe3e57;fill-rule:evenodd}</style></defs><path id="ahgrid" class="ahcls-1" d="M855 613.75h3.75V610H855v3.75zm5.625 11.25h3.75v-3.75h-3.75V625zM855 625h3.75v-3.75H855V625zm0-5.625h3.75v-3.75H855v3.75zm5.625 0h3.75v-3.75h-3.75v3.75zM866.25 610v3.75H870V610h-3.75zm-5.625 3.75h3.75V610h-3.75v3.75zm5.625 5.625H870v-3.75h-3.75v3.75zm0 5.625H870v-3.75h-3.75V625z" transform="translate(-855 -610)"/></svg><svg viewBox="0 0 20 15" id="btn-list" xmlns="http://www.w3.org/2000/svg"><defs><style>.aicls-1{fill:#8d8d8d;fill-rule:evenodd}</style></defs><path id="ailist" class="aicls-1" d="M885.007 610h4.422v4.172h-4.422V610zm5.828 0h14.159v4.172h-14.159V610zm-5.828 5.413h4.422v4.172h-4.422v-4.172zm5.828 0h14.159v4.172h-14.159v-4.172zm-5.828 5.414h4.422V625h-4.422v-4.171zm5.828 0h14.159V625h-14.159v-4.171z" transform="translate(-885 -610)"/></svg><svg aria-hidden="true" data-prefix="far" data-icon="calendar-alt" class="ajsvg-inline--fa ajfa-calendar-alt ajfa-w-14" viewBox="0 0 448 512" id="calendar" xmlns="http://www.w3.org/2000/svg"><path fill="currentColor" d="M148 288h-40c-6.6 0-12-5.4-12-12v-40c0-6.6 5.4-12 12-12h40c6.6 0 12 5.4 12 12v40c0 6.6-5.4 12-12 12zm108-12v-40c0-6.6-5.4-12-12-12h-40c-6.6 0-12 5.4-12 12v40c0 6.6 5.4 12 12 12h40c6.6 0 12-5.4 12-12zm96 0v-40c0-6.6-5.4-12-12-12h-40c-6.6 0-12 5.4-12 12v40c0 6.6 5.4 12 12 12h40c6.6 0 12-5.4 12-12zm-96 96v-40c0-6.6-5.4-12-12-12h-40c-6.6 0-12 5.4-12 12v40c0 6.6 5.4 12 12 12h40c6.6 0 12-5.4 12-12zm-96 0v-40c0-6.6-5.4-12-12-12h-40c-6.6 0-12 5.4-12 12v40c0 6.6 5.4 12 12 12h40c6.6 0 12-5.4 12-12zm192 0v-40c0-6.6-5.4-12-12-12h-40c-6.6 0-12 5.4-12 12v40c0 6.6 5.4 12 12 12h40c6.6 0 12-5.4 12-12zm96-260v352c0 26.5-21.5 48-48 48H48c-26.5 0-48-21.5-48-48V112c0-26.5 21.5-48 48-48h48V12c0-6.6 5.4-12 12-12h40c6.6 0 12 5.4 12 12v52h128V12c0-6.6 5.4-12 12-12h40c6.6 0 12 5.4 12 12v52h48c26.5 0 48 21.5 48 48zm-48 346V160H48v298c0 3.3 2.7 6 6 6h340c3.3 0 6-2.7 6-6z"/></svg><svg viewBox="0 0 18.94 16.969" id="cart" xmlns="http://www.w3.org/2000/svg"><defs><style>.akcls-1{fill:#243f4d;fill-rule:evenodd}</style></defs><path class="akcls-1" d="M5.53 16.978a2.074 2.074 0 110-4.147 2.056 2.056 0 011.46.6 2.03 2.03 0 01.61 1.466 2.071 2.071 0 01-2.07 2.081zm0-2.963a.889.889 0 10.34 1.71.9.9 0 00.55-.824.92.92 0 00-.26-.629.9.9 0 00-.63-.257zm8.39 2.963a2.045 2.045 0 01-1.46-.607 2.068 2.068 0 011.46-3.54 1.953 1.953 0 011.47.6 2.085 2.085 0 01-.67 3.383 2.093 2.093 0 01-.8.164zm0-2.963a.978.978 0 00-.82.548.887.887 0 001.16 1.161.891.891 0 00.29-1.452.9.9 0 00-.63-.257zm-11.27.164a.562.562 0 01-.25-.056.59.59 0 01-.29-.787 3.686 3.686 0 013.05-2.151L4.11 5.794a.591.591 0 111.16-.228l1.09 5.578h9.43l1.8-6.771H4.29A4.346 4.346 0 01.01.68.587.587 0 01.5.007a.6.6 0 01.68.5 3.159 3.159 0 003.11 2.682h14.07a.582.582 0 01.47.232.594.594 0 01.11.513l-2.13 7.956a.59.59 0 01-.57.44H5.88a.03.03 0 00-.02 0 2.66 2.66 0 00-2.68 1.51.586.586 0 01-.53.338z"/></svg><svg viewBox="0 0 24 24" id="checkmark" xmlns="http://www.w3.org/2000/svg"><path d="M20.293 5.293L9 16.586l-4.293-4.293-1.414 1.414L9 19.414 21.707 6.707l-1.414-1.414z"/></svg><svg viewBox="0 0 17.875 15.531" id="favorite" xmlns="http://www.w3.org/2000/svg"><defs><style>.amcls-1{fill:#243f4d;fill-rule:evenodd}</style></defs><path class="amcls-1" d="M8.944 15.525a.706.706 0 01-.279-.056c-.353-.15-8.65-3.749-8.65-10.76a4.818 4.818 0 018.93-2.4 4.818 4.818 0 018.928 2.372c0 7.034-8.3 10.634-8.649 10.783a.709.709 0 01-.28.061zM4.831 1.387a3.424 3.424 0 00-3.407 3.346c0 5.407 6.125 8.662 7.52 9.334 1.4-.672 7.52-3.93 7.52-9.358a3.409 3.409 0 00-6.816.024.7.7 0 01-.7.669.7.7 0 01-.7-.669 3.424 3.424 0 00-3.417-3.346z"/></svg><svg viewBox="0 0 5.188 9.531" id="filter-arrow-right" xmlns="http://www.w3.org/2000/svg"><defs><style>.ancls-1{fill:#243f4d;fill-rule:evenodd}</style></defs><path class="ancls-1" d="M.472 9.538a.463.463 0 00.331-.14l4.221-4.265.013-.013a.522.522 0 00.095-.144.541.541 0 00.045-.217.528.528 0 00-.044-.211.525.525 0 00-.1-.147.043.043 0 00-.011-.012L.801.124a.461.461 0 00-.68.019.539.539 0 00.018.724l3.857 3.9-3.857 3.9a.539.539 0 00-.018.724.467.467 0 00.351.147z"/></svg><svg viewBox="0 0 38.062 2" id="filter-line" xmlns="http://www.w3.org/2000/svg"><defs><style>.aocls-1{fill:#a3bbc8}</style></defs><rect id="aoBG" class="aocls-1" width="38.062" height="2" rx="1" ry="1"/></svg><svg viewBox="0 0 18 12.38" id="form-mail" xmlns="http://www.w3.org/2000/svg"><defs><style>.apcls-1{fill:#222933;fill-rule:evenodd;opacity:.8}</style></defs><path class="apcls-1" d="M16.714 12.37H1.286A1.259 1.259 0 010 11.14v-9.9A1.268 1.268 0 011.286 0h15.428A1.268 1.268 0 0118 1.24v9.9a1.259 1.259 0 01-1.286 1.23zM1.286.83a.417.417 0 00-.429.41v9.9a.424.424 0 00.429.41h15.428a.425.425 0 00.429-.41v-9.9a.418.418 0 00-.429-.41H1.286zM9 6.42a1.312 1.312 0 01-.737-.23L.481.95A.4.4 0 01.375.38a.437.437 0 01.6-.1l7.782 5.24a.441.441 0 00.492 0L17.031.28a.435.435 0 01.6.1.4.4 0 01-.105.57L9.744 6.19A1.315 1.315 0 019 6.42zm8.32 5.71a.437.437 0 01-.3-.12l-6.613-6.36a.41.41 0 010-.59.443.443 0 01.606 0l6.613 6.37a.4.4 0 010 .58.436.436 0 01-.306.12zm-16.64 0a.436.436 0 01-.3-.12.4.4 0 010-.58l6.612-6.37a.444.444 0 01.607 0 .41.41 0 010 .59L.986 12.01a.439.439 0 01-.306.12z"/></svg><svg viewBox="0 0 18 14.81" id="form-massege" xmlns="http://www.w3.org/2000/svg"><defs><style>.aqcls-1{fill:#222933;fill-rule:evenodd;opacity:.8}</style></defs><path class="aqcls-1" d="M3 14.81a.466.466 0 01-.164-.03.4.4 0 01-.265-.38v-2.07H1.286A1.259 1.259 0 010 11.1V1.23A1.259 1.259 0 011.286 0h15.428A1.259 1.259 0 0118 1.23v9.87a1.259 1.259 0 01-1.286 1.23H5.766l-2.463 2.36a.432.432 0 01-.303.12zM1.286.82a.424.424 0 00-.429.41v9.87a.424.424 0 00.429.41H3a.417.417 0 01.428.41v1.49l1.857-1.78a.427.427 0 01.3-.12h11.126a.425.425 0 00.429-.41V1.23a.425.425 0 00-.429-.41H1.286zm4.771 5.34a.643.643 0 11-.643-.61.627.627 0 01.643.61zm3.586 0A.644.644 0 119 5.55a.627.627 0 01.643.61zm3.343 0a.644.644 0 11-.643-.61.627.627 0 01.643.61z"/></svg><svg viewBox="0 0 13.687 13.16" id="form-name" xmlns="http://www.w3.org/2000/svg"><defs><style>.arcls-1{fill:#222933;fill-rule:evenodd;opacity:.8}</style></defs><path class="arcls-1" d="M13.257 13.17H.424a.426.426 0 01-.428-.42 6.85 6.85 0 0113.689 0 .426.426 0 01-.428.42zm-12.39-.83h11.947a6.011 6.011 0 00-11.947 0zM6.841 7a3.5 3.5 0 113.636-3.5A3.574 3.574 0 016.841 7zm0-6.17a2.672 2.672 0 102.78 2.67A2.732 2.732 0 006.841.83z"/></svg><svg viewBox="0 0 53.75 36.44" id="icon-delivery" xmlns="http://www.w3.org/2000/svg"><defs><style>.ascls-1,.ascls-2{fill:#a3bbc8}.ascls-1{fill-rule:evenodd}.ascls-2{opacity:.34}</style></defs><path id="asdelivery-truck" class="ascls-1" d="M812.816 1025.33h-6.126a.79.79 0 000 1.58h6.126a.79.79 0 000-1.58zm.524 11.01h-5.6a.785.785 0 100 1.57h5.6a.785.785 0 100-1.57zm-2.094-4.72H804.6a.79.79 0 000 1.58h6.65a.79.79 0 00-.004-1.58zm0 11.01h-.646a.785.785 0 100 1.57h.644a.785.785 0 10.002-1.57zm-3.263 0H804.6a.785.785 0 100 1.57h3.387a.785.785 0 10-.004-1.57zm36.86-19.86h-6.657v-1.42a.784.784 0 00-.786-.78h-12.175a.785.785 0 100 1.57h11.39v17.22a.786.786 0 101.571 0v-15.02h6.657a6.519 6.519 0 016.509 6.52v13.29h-2a4.974 4.974 0 00-9.824 0h-1.345v-1.12a.786.786 0 10-1.571 0v1.12h-8.336a4.974 4.974 0 00-9.823 0h-1.634v-22.01h5.261a.785.785 0 100-1.57h-6.046a.783.783 0 00-.785.78v23.59a.791.791 0 00.785.79h2.419a4.974 4.974 0 009.823 0h11.252a4.974 4.974 0 009.824 0h2.782a.791.791 0 00.785-.79v-14.08a8.094 8.094 0 00-8.076-8.09zm-21.475 25.58a3.41 3.41 0 113.4-3.41 3.411 3.411 0 01-3.4 3.41zm21.075 0a3.411 3.411 0 01-3.4-3.41 3.4 3.4 0 113.4 3.41zm.4-22.44h-4.3a.791.791 0 00-.785.79v7.39a.791.791 0 00.785.79H849a.792.792 0 00.786-.79v-3.23a4.949 4.949 0 00-4.943-4.95zm3.367 7.39h-6.882v-5.81h3.515a3.371 3.371 0 013.367 3.37v2.44zm-24.842 9.61a2.03 2.03 0 102.024 2.03 2.029 2.029 0 00-2.024-2.03zm0 2.49a.46.46 0 01-.455-.46.455.455 0 01.909 0 .46.46 0 01-.454.46zm21.075-2.49a2.03 2.03 0 102.025 2.03 2.03 2.03 0 00-2.025-2.03zm0 2.49a.46.46 0 01-.454-.46.454.454 0 01.908 0 .46.46 0 01-.454.46zm4.552-8.37a.783.783 0 00-.785.78v1.99a.786.786 0 101.571 0v-1.99a.784.784 0 00-.781-.78z" transform="translate(-803.812 -1020.56)"/><circle class="ascls-2" cx="43.938" cy="26.645" r="9.812"/></svg><svg viewBox="0 0 18 12.38" id="icon-email" xmlns="http://www.w3.org/2000/svg"><defs><style>.atcls-1{fill:#436372;fill-rule:evenodd}</style></defs><path class="atcls-1" d="M16.71 12.37H1.29A1.262 1.262 0 010 11.14v-9.9A1.27 1.27 0 011.29 0h15.42A1.27 1.27 0 0118 1.24v9.9a1.262 1.262 0 01-1.29 1.23zM1.29.83a.417.417 0 00-.43.41v9.9a.423.423 0 00.43.41h15.42a.423.423 0 00.43-.41v-9.9a.417.417 0 00-.43-.41H1.29zM9 6.42a1.319 1.319 0 01-.74-.23L.48.95a.4.4 0 01-.1-.57.428.428 0 01.59-.1l7.78 5.24a.454.454 0 00.5 0L17.03.28a.428.428 0 01.59.1.4.4 0 01-.1.57L9.74 6.19a1.319 1.319 0 01-.74.23zm8.32 5.71a.423.423 0 01-.3-.12L10.4 5.65a.423.423 0 010-.59.448.448 0 01.61 0l6.61 6.37a.394.394 0 010 .58.423.423 0 01-.3.12zm-16.64 0a.423.423 0 01-.3-.12.394.394 0 010-.58l6.61-6.37a.448.448 0 01.61 0 .423.423 0 010 .59L.98 12.01a.423.423 0 01-.3.12z"/></svg><svg viewBox="0 0 8.13 15.44" id="icon-facebook" xmlns="http://www.w3.org/2000/svg"><defs><style>.aucls-1{fill:#a1a1a1;fill-rule:evenodd}</style></defs><path id="auPath_1" data-name="Path 1" class="aucls-1" d="M1069.19 1899.12c.41 0 .83.03 1.24.05.27.01.54.04.79.07l-.02 2.49h-.2c-.27 0-.54-.01-.82-.01-.2 0-.4.01-.61.01a1.041 1.041 0 00-1.18 1.09c-.02.6-.03 1.9-.03 1.97.03 0 .68.01 1.34.01.32 0 .64 0 .87-.01h.53c-.13.96-.26 1.87-.39 2.8h-2.35l-.06 6.97h-2.89l.06-6.99h-2.37l.02-2.77h2.38v-.21c.01-.56 0-1.12.02-1.68a7.581 7.581 0 01.09-1.06 3.145 3.145 0 011.27-2.08 3.6 3.6 0 012.08-.64c.08 0 .15-.01.23-.01z" transform="translate(-1063.09 -1899.12)"/></svg><svg viewBox="0 0 18.03 11.41" id="icon-google" xmlns="http://www.w3.org/2000/svg"><defs><style>.avcls-1{fill:#a1a1a1;fill-rule:evenodd}</style></defs><path id="avUnion_1" data-name="Union 1" class="avcls-1" d="M1170.27 1912.73a5.653 5.653 0 01-5.24-4.49 5.314 5.314 0 01-.11-1.54 5.573 5.573 0 011.29-3.25 5.683 5.683 0 013.07-1.96 4.271 4.271 0 01.94-.14c.18-.01.36-.02.55-.02a5.311 5.311 0 012.69.74 6.276 6.276 0 011.01.74c-.57.56-1.11 1.11-1.67 1.66a3.053 3.053 0 00-1.67-.81 4.051 4.051 0 00-.48-.04 3.429 3.429 0 00-3.29 2.67 2.977 2.977 0 00-.08 1.03 3.429 3.429 0 002.33 2.97 3.365 3.365 0 001 .15c.08 0 .15-.01.23-.01a3.427 3.427 0 001.67-.53 2.65 2.65 0 001.13-1.72h-3.05c0-.08.01-1.5.01-2.2l.01-.09h5.36a6.171 6.171 0 01-1.01 4.81 5.029 5.029 0 01-2.82 1.84 6.2 6.2 0 01-1.54.2c-.11 0-.22-.01-.33-.01zm10.59-3.22h-1.51v-.06l.02-1.93h-1.99v-.06l.01-1.44v-.06h1.99l.01-1.93.01-.06h1.55v.06l-.01 1.93h1.99v.06l-.01 1.44v.06h-1.99l-.02 1.93v.06h-.05z" transform="translate(-1164.91 -1901.34)"/></svg><svg viewBox="0 0 13.62 13.66" id="icon-insta" xmlns="http://www.w3.org/2000/svg"><defs><style>.awcls-1{fill:#a1a1a1;fill-rule:evenodd}</style></defs><path id="awUnion_2" data-name="Union 2" class="awcls-1" d="M1133.34 1913.46a3.431 3.431 0 01-2.72-2.98 38.588 38.588 0 01.13-7.67 3.483 3.483 0 012.98-2.65 27.381 27.381 0 013.42-.15c1.28 0 2.56.03 3.33.07a3.78 3.78 0 012.5 1.02 3.638 3.638 0 011.09 2.33 43.2 43.2 0 01-.15 7.35 3.485 3.485 0 01-3.02 2.73 32.586 32.586 0 01-3.76.15 23.5 23.5 0 01-3.8-.2zm.73-12.12a2.349 2.349 0 00-2.18 2.06 45.652 45.652 0 00-.05 6.9 2.224 2.224 0 001.69 1.93 20.971 20.971 0 003.67.2c1.43 0 2.84-.05 3.37-.1a2.341 2.341 0 002.18-2.07 48.648 48.648 0 00.09-6.71 2.3 2.3 0 00-2.05-2.18 30.906 30.906 0 00-3.41-.13c-1.36 0-2.72.04-3.31.1zm-.25 5.5a3.517 3.517 0 013.53-3.5 3.459 3.459 0 013.47 3.5 3.53 3.53 0 01-3.53 3.5 3.466 3.466 0 01-3.47-3.5zm1.23-.03a2.252 2.252 0 002.23 2.29h.02a2.284 2.284 0 002.28-2.24 2.237 2.237 0 00-2.22-2.29h-.02a2.293 2.293 0 00-2.29 2.24zm5.12-3.61a.824.824 0 01.82-.82h.01a.815.815 0 01.81.82.826.826 0 01-.83.82.815.815 0 01-.81-.82z" transform="translate(-1130.5 -1900)"/></svg><svg viewBox="0 0 18 14.81" id="icon-messege" xmlns="http://www.w3.org/2000/svg"><defs><style>.axcls-1{fill:#436372;fill-rule:evenodd}</style></defs><path class="axcls-1" d="M3 14.81a.415.415 0 01-.16-.03.42.42 0 01-.27-.38v-2.07H1.29A1.262 1.262 0 010 11.1V1.23A1.262 1.262 0 011.29 0h15.42A1.262 1.262 0 0118 1.23v9.87a1.262 1.262 0 01-1.29 1.23H5.77L3.3 14.69a.423.423 0 01-.3.12zM1.29.82a.423.423 0 00-.43.41v9.87a.423.423 0 00.43.41H3a.417.417 0 01.43.41v1.49l1.86-1.78a.407.407 0 01.3-.12h11.12a.423.423 0 00.43-.41V1.23a.423.423 0 00-.43-.41H1.29zm4.77 5.34a.646.646 0 11-.65-.61.63.63 0 01.65.61zm3.58 0a.64.64 0 01-1.28 0A.619.619 0 019 5.55a.626.626 0 01.64.61zm3.35 0a.646.646 0 11-.65-.61.63.63 0 01.65.61z"/></svg><svg viewBox="0 0 53.56 52.25" id="icon-payment" xmlns="http://www.w3.org/2000/svg"><defs><style>.aycls-1,.aycls-2{fill:#a3bbc8}.aycls-1{fill-rule:evenodd}.aycls-2{opacity:.34}</style></defs><path id="aycredit-card" class="aycls-1" d="M1444.43 1042.32a.83.83 0 00-.84.83v8.27a2.164 2.164 0 01-2.16 2.16h-39.34a2.164 2.164 0 01-2.16-2.16v-11.92h27.29a.84.84 0 100-1.68h-27.29v-5.47h9.87a.828.828 0 00.83-.83.837.837 0 00-.83-.84h-9.87v-2.88a2.166 2.166 0 012.16-2.17h25.13a.835.835 0 100-1.67h-25.13a3.839 3.839 0 00-3.83 3.84v23.62a3.837 3.837 0 003.83 3.83h39.34a3.837 3.837 0 003.83-3.83v-8.27a.828.828 0 00-.83-.83zm-17.21-11.64H1413a.837.837 0 00-.83.84.828.828 0 00.83.83h14.22a.837.837 0 00.84-.83.845.845 0 00-.84-.84zm-9.24 11.56h-14.27a.835.835 0 000 1.67h14.27a.835.835 0 100-1.67zm-6.08 3.99h-8.19a.835.835 0 000 1.67h8.19a.835.835 0 000-1.67zm34.63-13.61a.832.832 0 00.84-.84v-4.77a3.038 3.038 0 00-2.39-2.97v-6.02a6.6 6.6 0 10-13.19 0v6.02a3.053 3.053 0 00-2.4 2.97v10.75a3.045 3.045 0 003.04 3.04h11.9a3.039 3.039 0 003.04-3.04v-3.19a.835.835 0 00-1.67 0v3.19a1.379 1.379 0 01-1.37 1.37h-11.9a1.379 1.379 0 01-1.37-1.37v-10.75a1.379 1.379 0 011.37-1.37h11.9a1.379 1.379 0 011.37 1.37v4.77a.83.83 0 00.83.84zm-3.23-8.65h-9.84v-5.95a4.92 4.92 0 119.84 0v5.95zm-4.92 4.32a3.092 3.092 0 00-.83 6.07v2.04a.83.83 0 00.83.84.839.839 0 00.84-.84v-2.04a3.094 3.094 0 00-.84-6.07zm0 4.52a1.425 1.425 0 111.42-1.43 1.428 1.428 0 01-1.42 1.43z" transform="translate(-1398.25 -1011.41)"/><circle class="aycls-2" cx="43.75" cy="42.45" r="9.81"/></svg><svg viewBox="0 0 22 20" id="icon-prod-cart" xmlns="http://www.w3.org/2000/svg"><defs><style>.azcls-1{fill:#fff;fill-rule:evenodd}</style></defs><path id="azForma_1" data-name="Forma 1" class="azcls-1" d="M800.814 1564.63h2.333l3.323 12.04a.812.812 0 00.787.59h10.214a.821.821 0 00.746-.48l3.717-8.56a.836.836 0 00-.068-.78.813.813 0 00-.678-.37H809.9a.82.82 0 000 1.64h10.04l-3.011 6.92h-9.062l-3.323-12.03a.808.808 0 00-.787-.6h-2.943a.815.815 0 000 1.63zm5.67 18.37a1.85 1.85 0 10-1.845-1.85 1.85 1.85 0 001.845 1.85zm11.53 0h.135a1.907 1.907 0 10-.135 0z" transform="translate(-800 -1563)"/></svg><svg viewBox="0 0 22 18" id="icon-prod-favorite" xmlns="http://www.w3.org/2000/svg"><defs><style>.bacls-1{fill:#a3bbc8;fill-rule:evenodd}</style></defs><path id="baForma_1" data-name="Forma 1" class="bacls-1" d="M882.99 1569.82a6.208 6.208 0 00-1.849-4.1A5.871 5.871 0 00877 1564c-2.311 0-3.948 1.78-4.827 2.74a2.156 2.156 0 01-.156.17l-.083-.09c-.8-.92-2.476-2.82-4.938-2.82a5.873 5.873 0 00-4.139 1.72 6.208 6.208 0 00-1.849 4.1 6.845 6.845 0 001.271 4.34 29.307 29.307 0 004.763 4.75c1.705 1.41 3.95 3.09 4.965 3.09 1.032 0 3.269-1.68 4.965-3.09a29.234 29.234 0 004.746-4.75 6.935 6.935 0 001.272-4.34zm-2.376 3.61a27 27 0 01-4.431 4.42c-2.406 2-3.831 2.79-4.172 2.82-.342-.03-1.77-.83-4.188-2.84a26.78 26.78 0 01-4.437-4.4 5.6 5.6 0 01-1.054-3.54 4.807 4.807 0 014.666-4.57c1.863 0 3.216 1.54 3.943 2.37a1.52 1.52 0 001.059.76 1.731 1.731 0 001.151-.81c.794-.87 2.122-2.32 3.851-2.32a4.807 4.807 0 014.666 4.57 5.528 5.528 0 01-1.054 3.54z" transform="translate(-861 -1564)"/></svg><svg viewBox="0 0 20 20" id="icon-prod-zoom" xmlns="http://www.w3.org/2000/svg"><defs><style>.bbcls-1{fill:#a3bbc8;fill-rule:evenodd}</style></defs><path id="bbForma_1" data-name="Forma 1" class="bbcls-1" d="M759.45 1579.8l-4.588-4.59a8.827 8.827 0 01-2.651 2.65l4.588 4.59a1.874 1.874 0 002.651-2.65zm-4.45-9.3a7.5 7.5 0 10-7.5 7.5 7.5 7.5 0 007.5-7.5zm-7.5 5.62a5.625 5.625 0 115.625-5.62 5.628 5.628 0 01-5.625 5.62zm-4.375-5.62h1.25a3.135 3.135 0 013.125-3.13v-1.25a4.386 4.386 0 00-4.375 4.38z" transform="translate(-740 -1563)"/></svg><svg viewBox="0 0 50.875 53.13" id="icon-support" xmlns="http://www.w3.org/2000/svg"><defs><style>.bccls-1,.bccls-2{fill:#a3bbc8;fill-rule:evenodd}.bccls-1{opacity:.34}</style></defs><path class="bccls-1" d="M41.078 33.5a9.815 9.815 0 11-9.8 9.82 9.811 9.811 0 019.8-9.82z"/><path class="bccls-2" d="M45.406 11.58a.937.937 0 00-1.592.99 22.684 22.684 0 01-32.86 30.14.938.938 0 00-1.125 1.5 24.559 24.559 0 0035.577-32.63zm-23.03 21.94h-7.55l4.743-4.75a12.68 12.68 0 003.744-9.03 5.844 5.844 0 10-11.688 0 .938.938 0 001.875 0 3.969 3.969 0 117.938 0 10.836 10.836 0 01-3.195 7.71l-6.344 6.34a.949.949 0 00-.2 1.03.93.93 0 00.866.57h9.813a.935.935 0 10-.002-1.87zm15.039-6.44h-2.6v-1.52a.938.938 0 00-1.875 0v1.52h-5.286l5.286-8.85v4.21a.938.938 0 101.875 0v-7.62a.957.957 0 00-.456-.8.94.94 0 00-1.286.33l-7.875 13.19a.933.933 0 00-.011.94.951.951 0 00.816.48h6.938v5.5a.938.938 0 001.875 0v-5.5h2.6a.94.94 0 00-.001-1.88zm5.33-22.63a.938.938 0 10-1.875.04l.042 1.75A24.556 24.556 0 007.363 42.09a.93.93 0 00.656.27.92.92 0 00.669-.28.942.942 0 00-.013-1.33A22.679 22.679 0 0124.557 1.88a22.745 22.745 0 0115.107 5.77l-1.843.04a.935.935 0 00.022 1.87h.023l4.06-.09a.934.934 0 00.915-.96z"/></svg><svg viewBox="0 0 14.31 11.62" id="icon-twitter" xmlns="http://www.w3.org/2000/svg"><defs><style>.bdcls-1{fill:#a1a1a1;fill-rule:evenodd}</style></defs><path id="bdPath_2" data-name="Path 2" class="bdcls-1" d="M1109.69 1902.28c-.11.16-.21.3-.33.45a5.7 5.7 0 01-1.07 1.01l-.05.09a8.22 8.22 0 01-.07 1.31 8.818 8.818 0 01-.77 2.61 8.712 8.712 0 01-1.6 2.3 7.864 7.864 0 01-4.05 2.25 8.967 8.967 0 01-1.64.2h-.26a8.172 8.172 0 01-4.42-1.27l-.07-.04a5.322 5.322 0 00.69.04 6.049 6.049 0 002.25-.44 5.834 5.834 0 001.4-.82 2.9 2.9 0 01-2.71-2.03 3.287 3.287 0 00.54.05 2.82 2.82 0 00.71-.09l.05-.02a2.9 2.9 0 01-2.32-2.9 2.914 2.914 0 001.31.35 2.914 2.914 0 01-1.2-1.78 2.877 2.877 0 01.34-2.12 8.311 8.311 0 006.02 3.07c-.02-.12-.03-.22-.05-.33a2.8 2.8 0 01.45-1.91 2.853 2.853 0 011.99-1.33 3.439 3.439 0 01.54-.04 2.833 2.833 0 012.03.86.139.139 0 00.1.05.09.09 0 00.05-.01 5.547 5.547 0 001.71-.65l.04-.02a2.919 2.919 0 01-1.25 1.6 5.859 5.859 0 001.64-.44z" transform="translate(-1095.38 -1900.88)"/></svg><svg viewBox="0 0 37 33.968" id="mail-marker" xmlns="http://www.w3.org/2000/svg"><defs><style>.becls-1{fill:#fff;fill-rule:evenodd}</style></defs><path id="beicon" class="becls-1" d="M942.975 650.918a.957.957 0 01-.669-.272.922.922 0 01-.278-.659L942 629.786v-.017a.927.927 0 01.408-.754l5.322-3.616v-3.838a.94.94 0 01.948-.932h6.067l5.217-3.546a.961.961 0 011.079 0l5.185 3.545h6.093a.94.94 0 01.947.932v3.882l5.3 3.621a.933.933 0 01.373.519.528.528 0 01.034.184l.027 20.171a.941.941 0 01-.946.933l-35.077.048zm2.773-1.867l29.478-.041-14.712-11.224zm-1.828-.965l11.443-8.73-11.463-7.793zm21.72-8.748l11.461 8.744-.023-16.565zm-16.014-6.148l7.308 4.968 3-2.288a.959.959 0 011.148-.008l.013.008 2.977 2.272 7.3-4.993v-10.656h-21.746v10.7zm-5.013-3.408l3.118 2.121v-4.241zm28.654 2.072l3.028-2.071-3.028-2.07v4.141zm-15.188-11.225h4.828l-2.407-1.645zm-3.994 12.3a.933.933 0 110-1.865h12.83a.933.933 0 110 1.865h-12.83zm0-4.847a.932.932 0 110-1.864h12.83a.932.932 0 110 1.864h-12.83z" transform="translate(-942 -616.938)"/></svg><svg viewBox="0 0 20.03 20.031" id="more" xmlns="http://www.w3.org/2000/svg"><defs><style>.bfcls-1{fill:#fff;fill-rule:evenodd}</style></defs><path class="bfcls-1" d="M2.15 4.287a2.146 2.146 0 112.14-2.145 2.145 2.145 0 01-2.14 2.145zm0 7.869a2.146 2.146 0 112.14-2.147 2.146 2.146 0 01-2.14 2.147zm0 7.868a2.146 2.146 0 112.14-2.146 2.145 2.145 0 01-2.14 2.146zm7.86-15.737a2.146 2.146 0 112.15-2.145 2.143 2.143 0 01-2.15 2.145zm0 7.869a2.146 2.146 0 112.15-2.147 2.144 2.144 0 01-2.15 2.147zm0 7.868a2.146 2.146 0 112.15-2.146 2.143 2.143 0 01-2.15 2.146zm7.87-15.737a2.146 2.146 0 112.15-2.145 2.143 2.143 0 01-2.15 2.145zm0 7.869a2.146 2.146 0 112.15-2.147 2.144 2.144 0 01-2.15 2.147zm0 7.868a2.146 2.146 0 112.15-2.146 2.143 2.143 0 01-2.15 2.146z"/></svg><svg viewBox="0 0 37 44" id="phone-marker" xmlns="http://www.w3.org/2000/svg"><defs><style>.bgcls-1{fill:#a3bbc8;fill-rule:evenodd}</style></defs><path id="bgicon" class="bgcls-1" d="M1355.44 650.922a5.06 5.06 0 115.06 5 5.034 5.034 0 01-5.06-5zm1.97 0a3.085 3.085 0 103.09-3.045 3.074 3.074 0 00-3.09 3.045zm11.47-11.336a5.06 5.06 0 115.06 5 5.033 5.033 0 01-5.06-5zm1.98 0a3.085 3.085 0 103.08-3.046 3.066 3.066 0 00-3.08 3.046zm-15.42 0a5.06 5.06 0 115.06 5 5.033 5.033 0 01-5.06-5zm1.97 0a3.085 3.085 0 103.09-3.046 3.075 3.075 0 00-3.09 3.046zm-15.41 0a5.06 5.06 0 115.06 5 5.033 5.033 0 01-5.06-5zm1.97 0a3.085 3.085 0 103.09-3.046 3.075 3.075 0 00-3.09 3.046zm24.91-11.337a5.06 5.06 0 115.06 5 5.034 5.034 0 01-5.06-5zm1.98 0a3.085 3.085 0 103.08-3.045 3.064 3.064 0 00-3.08 3.045zm-15.42 0a5.06 5.06 0 115.06 5 5.034 5.034 0 01-5.06-5zm1.97 0a3.085 3.085 0 103.09-3.045 3.073 3.073 0 00-3.09 3.045zm-15.41 0a5.06 5.06 0 115.06 5 5.034 5.034 0 01-5.06-5zm1.97 0a3.085 3.085 0 103.09-3.045 3.073 3.073 0 00-3.09 3.045zm24.91-11.336a5.06 5.06 0 115.06 5 5.033 5.033 0 01-5.06-5zm1.98 0a3.085 3.085 0 103.08-3.046 3.066 3.066 0 00-3.08 3.046zm-15.42 0a5.06 5.06 0 115.06 5 5.033 5.033 0 01-5.06-5zm1.97 0a3.085 3.085 0 103.09-3.046 3.075 3.075 0 00-3.09 3.046zm-15.41 0a5.06 5.06 0 115.06 5 5.033 5.033 0 01-5.06-5zm1.97 0a3.085 3.085 0 103.09-3.046 3.075 3.075 0 00-3.09 3.046z" transform="translate(-1342 -611.906)"/></svg><svg viewBox="0 0 31 44" id="point-marker" xmlns="http://www.w3.org/2000/svg"><defs><style>.bhcls-1{fill:#a3bbc8;fill-rule:evenodd}</style></defs><path id="bhicon" class="bhcls-1" d="M558.6 655.809l-6.584-2.917-5.674 2.51a1.651 1.651 0 01-1.864-.355 1.634 1.634 0 01-.313-1.862l4.994-10.516a1.1 1.1 0 111.972.987l-4.343 9.144 4.32-1.914a2.227 2.227 0 011.806 0l6.583 2.916h.011l6.585-2.917a2.223 2.223 0 011.8 0l4.32 1.914-4.342-9.145a1.093 1.093 0 01.174-1.275 1.107 1.107 0 011.8.288l4.994 10.518a1.656 1.656 0 01-2.176 2.216L567 652.892l-6.594 2.917a2.23 2.23 0 01-1.806 0zm-1.947-7.6l-9.553-15.926c-.011-.02-.023-.041-.033-.062a13.944 13.944 0 1126.39-6.327 13.691 13.691 0 01-1.528 6.327l-.034.062-9.548 15.927a3.326 3.326 0 01-5.697 0zm2.683-34.012a11.783 11.783 0 00-11.586 11.625 11.521 11.521 0 001.269 5.366l9.529 15.9a1.114 1.114 0 001.91 0l9.528-15.9a11.665 11.665 0 00-2.231-13.625 11.7 11.7 0 00-8.247-3.368zm-4.884 11.7a5.051 5.051 0 115.051 5.027 5.044 5.044 0 01-5.054-5.03zm2.206 0a2.845 2.845 0 102.845-2.83 2.842 2.842 0 00-2.848 2.827z" transform="translate(-544 -612)"/></svg><svg viewBox="0 0 15.28 15.281" id="search" xmlns="http://www.w3.org/2000/svg"><defs><style>.bicls-1{fill:#243f4d;fill-rule:evenodd}</style></defs><path id="biicon" class="bicls-1" d="M1547.7 72.076a.617.617 0 01.75.485 2.583 2.583 0 00.78 1.489 3.036 3.036 0 001.49.777.636.636 0 01.49.743.649.649 0 01-.72.515 4.21 4.21 0 01-2.14-1.13 4.164 4.164 0 01-1.13-2.136.6.6 0 01.48-.743zm3.28-6.076a6.267 6.267 0 016.28 6.257 6.136 6.136 0 01-.57 2.6l2.34 2.036c1.7 1.746.74 3.266.29 3.717-.42.454-1.99 1.414-3.73-.292l-2.06-2.35A6.261 6.261 0 111550.98 66zm5.55 13.517a1.352 1.352 0 001.88.226 1.313 1.313 0 00-.23-1.874l-2.16-1.88a6.236 6.236 0 01-1.37 1.34zm-5.55-2.312a4.948 4.948 0 10-4.97-4.948 4.963 4.963 0 004.97 4.943z" transform="translate(-1544.72 -66)"/></svg><svg viewBox="0 0 17.03 17" id="search-input" xmlns="http://www.w3.org/2000/svg"><defs><style>.bjcls-1{fill:#094074;fill-rule:evenodd}</style></defs><path class="bjcls-1" d="M16.44 17.014a.6.6 0 01-.42-.174l-5.3-5.3a6.515 6.515 0 11.84-.839l5.3 5.3a.6.6 0 010 .839.6.6 0 01-.42.174zM6.54 1.181a5.344 5.344 0 105.35 5.344 5.351 5.351 0 00-5.35-5.344z"/></svg><svg viewBox="0 0 16 14" id="star-solid" xmlns="http://www.w3.org/2000/svg"><path d="M7.203.488L5.391 4.105l-4.059.582c-.73.106-1.02.989-.492 1.497L3.773 9l-.691 3.977c-.125.718.645 1.257 1.29.921L8 12.02l3.629 1.878c.644.336 1.414-.203 1.289-.921L12.227 9l2.933-2.816a.87.87 0 00-.492-1.493l-4.059-.586L8.797.488c-.324-.648-1.266-.656-1.594 0zm0 0"/></svg><svg viewBox="0 0 20 20" id="time" xmlns="http://www.w3.org/2000/svg"><defs><style>.blcls-1{fill:#8d8d8d;fill-rule:evenodd}</style></defs><path class="blcls-1" d="M17.9 5.26a.832.832 0 00-.387 1.11 8.318 8.318 0 11-2.335-2.91.831.831 0 101.037-1.3A10 10 0 1020 10a9.9 9.9 0 00-.992-4.35.83.83 0 00-1.113-.39zM10 3.33a.839.839 0 00-.833.84V10a.831.831 0 00.833.83h4.167a.83.83 0 100-1.66h-3.334v-5A.839.839 0 0010 3.33zm0 0"/></svg><svg viewBox="0 0 20 20" id="user-gray" xmlns="http://www.w3.org/2000/svg"><defs><style>.bmcls-1{fill:#8d8d8d;fill-rule:evenodd}</style></defs><path class="bmcls-1" d="M17.071 12.93a9.992 9.992 0 00-3.8-2.39 5.781 5.781 0 10-6.542 0A10.038 10.038 0 000 20h1.562a8.438 8.438 0 1116.875 0H20a9.935 9.935 0 00-2.929-7.07zM5.781 5.78A4.219 4.219 0 1110 10a4.223 4.223 0 01-4.219-4.22z"/></svg><svg viewBox="0 0 22 25" id="video-play-icon" xmlns="http://www.w3.org/2000/svg"><defs><style>.bncls-1{fill:#fff;fill-rule:evenodd}</style></defs><path id="bnForm_24" data-name="Form 24" class="bncls-1" d="M970.684 3900.74l-16.044 9.8a3.228 3.228 0 01-3.062.14 2.685 2.685 0 01-1.579-2.39v-19.59a2.685 2.685 0 011.579-2.39 3.258 3.258 0 013.062.15l16.044 9.79a2.666 2.666 0 011.316 2.25 2.638 2.638 0 01-1.316 2.24z" transform="translate(-950 -3886)"/></svg></svg>